<svg width="51" height="72" viewBox="0 0 51 72" fill="none" xmlns="http://www.w3.org/2000/svg">
<path d="M12.4 44.6C10.2 44.6 8 44 5.8 42.8C5.06667 42.4333 4.56667 42.25 4.3 42.25C3.8 42.25 3.53333 42.6 3.5 43.3L3.45 44H2.5V35.65H3.4C3.7 38.2167 4.65 40.1167 6.25 41.35C7.88333 42.55 9.8 43.15 12 43.15C14.2333 43.15 15.9167 42.55 17.05 41.35C18.2167 40.15 18.8 38.7333 18.8 37.1C18.8 34.5 17.3 32.5333 14.3 31.2L8.35 28.55C6.55 27.75 5.2 26.6667 4.3 25.3C3.4 23.9 2.95 22.4 2.95 20.8C2.95 18.3667 3.76667 16.2833 5.4 14.55C7.03333 12.7833 9.38333 11.9 12.45 11.9C14.25 11.9 16.1 12.5 18 13.7C18.6333 14.0667 19.0667 14.25 19.3 14.25C19.7333 14.25 19.9667 13.9 20 13.2L20.05 12.2H21V20.85H20.1C19.8333 18.2833 19 16.4 17.6 15.2C16.2333 13.9667 14.55 13.35 12.55 13.35C10.5833 13.35 9.05 13.9 7.95 15C6.88333 16.0667 6.35 17.3 6.35 18.7C6.35 20.0667 6.71667 21.3 7.45 22.4C8.21667 23.5 9.33333 24.3667 10.8 25L16.8 27.65C18.8 28.55 20.3 29.7333 21.3 31.2C22.3333 32.6333 22.85 34.1833 22.85 35.85C22.85 38.2167 21.9 40.2667 20 42C18.1 43.7333 15.5667 44.6 12.4 44.6Z" fill="white"/>
<path d="M26.75 61V60.1H29.1C29.5667 60.1 29.8 59.8667 29.8 59.4V31C29.8 30.6 29.5667 30.4 29.1 30.4H26.75V29.5H42.6C45.2333 29.5 47.0833 29.35 48.15 29.05C47.85 30.4167 47.7 32.3167 47.7 34.75V37.1H46.55L45.8 32C45.7333 31.2667 45.2667 30.9 44.4 30.9H33.9V44.55H43.95C44.35 44.55 44.5833 44.3167 44.65 43.85L44.9 40.75H45.8V49.75H44.9L44.65 46.65C44.5833 46.1833 44.35 45.95 43.95 45.95H33.9V59.6H45.1C45.9667 59.6 46.4333 59.2333 46.5 58.5L47.25 52.65H48.4V55C48.4 57.9333 48.55 60.0833 48.85 61.45C47.7833 61.15 45.9333 61 43.3 61H26.75Z" fill="white"/>
<rect x="2.44617" y="21.3048" width="52.2231" height="2.38301" transform="rotate(27.6065 2.44617 21.3048)" fill="black"/>
</svg>
