<svg xmlns="http://www.w3.org/2000/svg" xmlns:xlink="http://www.w3.org/1999/xlink" xmlns:s="https://github.com/nturley/netlistsvg" width="865" height="615.5">
  <style>svg {
    stroke:#000;
    fill:none;
  }
  text {
    fill:#000;
    stroke:none;
    font-size:10px;
    font-weight: bold;
    font-family: "Courier New", monospace;
  }
  .nodelabel {
    text-anchor: middle;
  }
  .inputPortLabel {
    text-anchor: end;
  }
  .splitjoinBody {
    fill:#000;
  }</style>
  <g s:type="and" transform="translate(616,578.5)" s:width="30" s:height="25" id="cell_$abc$145$auto$blifparse.cc:396:parse_blif$146">
    <s:alias val="$and"/>
    <s:alias val="$logic_and"/>
    <s:alias val="$_AND_"/>
    <path d="M0,0 L0,25 L15,25 A15 12.5 0 0 0 15,0 Z" class="cell_$abc$145$auto$blifparse.cc:396:parse_blif$146"/>
    <g s:x="0" s:y="5" s:pid="A"/>
    <g s:x="0" s:y="20" s:pid="B"/>
    <g s:x="30" s:y="12.5" s:pid="Y"/>
  </g>
  <g s:type="reduce_xor" transform="translate(539,441.5)" s:width="33" s:height="25" id="cell_$abc$145$auto$blifparse.cc:396:parse_blif$147">
    <s:alias val="$xor"/>
    <s:alias val="$reduce_xor"/>
    <s:alias val="$_XOR_"/>
    <path d="M3,0 A30 25 0 0 1 3,25 A30 25 0 0 0 33,12.5 A30 25 0 0 0 3,0" class="cell_$abc$145$auto$blifparse.cc:396:parse_blif$147"/>
    <path d="M0,0 A30 25 0 0 1 0,25" class="cell_$abc$145$auto$blifparse.cc:396:parse_blif$147"/>
    <g s:x="3" s:y="5" s:pid="A"/>
    <g s:x="3" s:y="20" s:pid="B"/>
    <g s:x="33" s:y="12.5" s:pid="Y"/>
  </g>
  <g s:type="nand" transform="translate(538,532.5)" s:width="30" s:height="25" id="cell_$abc$145$auto$blifparse.cc:396:parse_blif$148">
    <s:alias val="$nand"/>
    <s:alias val="$logic_nand"/>
    <s:alias val="$_NAND_"/>
    <s:alias val="$_ANDNOT_"/>
    <path d="M0,0 L0,25 L15,25 A15 12.5 0 0 0 15,0 Z" class="cell_$abc$145$auto$blifparse.cc:396:parse_blif$148"/>
    <circle cx="34" cy="12.5" r="3" class="cell_$abc$145$auto$blifparse.cc:396:parse_blif$148"/>
    <g s:x="0" s:y="5" s:pid="A"/>
    <g s:x="0" s:y="20" s:pid="B"/>
    <g s:x="36" s:y="12.5" s:pid="Y"/>
  </g>
  <g s:type="nand" transform="translate(614,525)" s:width="30" s:height="25" id="cell_$abc$145$auto$blifparse.cc:396:parse_blif$149">
    <s:alias val="$nand"/>
    <s:alias val="$logic_nand"/>
    <s:alias val="$_NAND_"/>
    <s:alias val="$_ANDNOT_"/>
    <path d="M0,0 L0,25 L15,25 A15 12.5 0 0 0 15,0 Z" class="cell_$abc$145$auto$blifparse.cc:396:parse_blif$149"/>
    <circle cx="34" cy="12.5" r="3" class="cell_$abc$145$auto$blifparse.cc:396:parse_blif$149"/>
    <g s:x="0" s:y="5" s:pid="A"/>
    <g s:x="0" s:y="20" s:pid="B"/>
    <g s:x="36" s:y="12.5" s:pid="Y"/>
  </g>
  <g s:type="or" transform="translate(687.6666666666666,532.5)" s:width="30" s:height="25" id="cell_$abc$145$auto$blifparse.cc:396:parse_blif$150">
    <s:alias val="$or"/>
    <s:alias val="$logic_or"/>
    <s:alias val="$_OR_"/>
    <path d="M0,25 L0,25 L15,25 A15 12.5 0 0 0 15,0 L0,0" class="cell_$abc$145$auto$blifparse.cc:396:parse_blif$150"/>
    <path d="M0,0 A30 25 0 0 1 0,25" class="cell_$abc$145$auto$blifparse.cc:396:parse_blif$150"/>
    <g s:x="3" s:y="5" s:pid="A"/>
    <g s:x="3" s:y="20" s:pid="B"/>
    <g s:x="30" s:y="12.5" s:pid="Y"/>
  </g>
  <g s:type="reduce_nxor" transform="translate(465,103)" s:width="33" s:height="25" id="cell_$abc$145$auto$blifparse.cc:396:parse_blif$151">
    <s:alias val="$xnor"/>
    <s:alias val="$reduce_xnor"/>
    <s:alias val="$_XNOR_"/>
    <path d="M3,0 A30 25 0 0 1 3,25 A30 25 0 0 0 33,12.5 A30 25 0 0 0 3,0" class="cell_$abc$145$auto$blifparse.cc:396:parse_blif$151"/>
    <path d="M0,0 A30 25 0 0 1 0,25" class="cell_$abc$145$auto$blifparse.cc:396:parse_blif$151"/>
    <circle cx="35" cy="12.5" r="3" class="cell_$abc$145$auto$blifparse.cc:396:parse_blif$151"/>
    <g s:x="3" s:y="5" s:pid="A"/>
    <g s:x="3" s:y="20" s:pid="B"/>
    <g s:x="38" s:y="12.5" s:pid="Y"/>
  </g>
  <g s:type="nand" transform="translate(614,465)" s:width="30" s:height="25" id="cell_$abc$145$auto$blifparse.cc:396:parse_blif$152">
    <s:alias val="$nand"/>
    <s:alias val="$logic_nand"/>
    <s:alias val="$_NAND_"/>
    <s:alias val="$_ANDNOT_"/>
    <path d="M0,0 L0,25 L15,25 A15 12.5 0 0 0 15,0 Z" class="cell_$abc$145$auto$blifparse.cc:396:parse_blif$152"/>
    <circle cx="34" cy="12.5" r="3" class="cell_$abc$145$auto$blifparse.cc:396:parse_blif$152"/>
    <g s:x="0" s:y="5" s:pid="A"/>
    <g s:x="0" s:y="20" s:pid="B"/>
    <g s:x="36" s:y="12.5" s:pid="Y"/>
  </g>
  <g s:type="nand" transform="translate(394,411.5)" s:width="30" s:height="25" id="cell_$abc$145$auto$blifparse.cc:396:parse_blif$153">
    <s:alias val="$nand"/>
    <s:alias val="$logic_nand"/>
    <s:alias val="$_NAND_"/>
    <s:alias val="$_ANDNOT_"/>
    <path d="M0,0 L0,25 L15,25 A15 12.5 0 0 0 15,0 Z" class="cell_$abc$145$auto$blifparse.cc:396:parse_blif$153"/>
    <circle cx="34" cy="12.5" r="3" class="cell_$abc$145$auto$blifparse.cc:396:parse_blif$153"/>
    <g s:x="0" s:y="5" s:pid="A"/>
    <g s:x="0" s:y="20" s:pid="B"/>
    <g s:x="36" s:y="12.5" s:pid="Y"/>
  </g>
  <g s:type="reduce_xor" transform="translate(324,381.5)" s:width="33" s:height="25" id="cell_$abc$145$auto$blifparse.cc:396:parse_blif$154">
    <s:alias val="$xor"/>
    <s:alias val="$reduce_xor"/>
    <s:alias val="$_XOR_"/>
    <path d="M3,0 A30 25 0 0 1 3,25 A30 25 0 0 0 33,12.5 A30 25 0 0 0 3,0" class="cell_$abc$145$auto$blifparse.cc:396:parse_blif$154"/>
    <path d="M0,0 A30 25 0 0 1 0,25" class="cell_$abc$145$auto$blifparse.cc:396:parse_blif$154"/>
    <g s:x="3" s:y="5" s:pid="A"/>
    <g s:x="3" s:y="20" s:pid="B"/>
    <g s:x="33" s:y="12.5" s:pid="Y"/>
  </g>
  <g s:type="nand" transform="translate(252,351.5)" s:width="30" s:height="25" id="cell_$abc$145$auto$blifparse.cc:396:parse_blif$155">
    <s:alias val="$nand"/>
    <s:alias val="$logic_nand"/>
    <s:alias val="$_NAND_"/>
    <s:alias val="$_ANDNOT_"/>
    <path d="M0,0 L0,25 L15,25 A15 12.5 0 0 0 15,0 Z" class="cell_$abc$145$auto$blifparse.cc:396:parse_blif$155"/>
    <circle cx="34" cy="12.5" r="3" class="cell_$abc$145$auto$blifparse.cc:396:parse_blif$155"/>
    <g s:x="0" s:y="5" s:pid="A"/>
    <g s:x="0" s:y="20" s:pid="B"/>
    <g s:x="36" s:y="12.5" s:pid="Y"/>
  </g>
  <g s:type="reduce_nxor" transform="translate(179,256.5)" s:width="33" s:height="25" id="cell_$abc$145$auto$blifparse.cc:396:parse_blif$156">
    <s:alias val="$xnor"/>
    <s:alias val="$reduce_xnor"/>
    <s:alias val="$_XNOR_"/>
    <path d="M3,0 A30 25 0 0 1 3,25 A30 25 0 0 0 33,12.5 A30 25 0 0 0 3,0" class="cell_$abc$145$auto$blifparse.cc:396:parse_blif$156"/>
    <path d="M0,0 A30 25 0 0 1 0,25" class="cell_$abc$145$auto$blifparse.cc:396:parse_blif$156"/>
    <circle cx="35" cy="12.5" r="3" class="cell_$abc$145$auto$blifparse.cc:396:parse_blif$156"/>
    <g s:x="3" s:y="5" s:pid="A"/>
    <g s:x="3" s:y="20" s:pid="B"/>
    <g s:x="38" s:y="12.5" s:pid="Y"/>
  </g>
  <g s:type="nand" transform="translate(252,249)" s:width="30" s:height="25" id="cell_$abc$145$auto$blifparse.cc:396:parse_blif$157">
    <s:alias val="$nand"/>
    <s:alias val="$logic_nand"/>
    <s:alias val="$_NAND_"/>
    <s:alias val="$_ANDNOT_"/>
    <path d="M0,0 L0,25 L15,25 A15 12.5 0 0 0 15,0 Z" class="cell_$abc$145$auto$blifparse.cc:396:parse_blif$157"/>
    <circle cx="34" cy="12.5" r="3" class="cell_$abc$145$auto$blifparse.cc:396:parse_blif$157"/>
    <g s:x="0" s:y="5" s:pid="A"/>
    <g s:x="0" s:y="20" s:pid="B"/>
    <g s:x="36" s:y="12.5" s:pid="Y"/>
  </g>
  <g s:type="nand" transform="translate(323,241.5)" s:width="30" s:height="25" id="cell_$abc$145$auto$blifparse.cc:396:parse_blif$158">
    <s:alias val="$nand"/>
    <s:alias val="$logic_nand"/>
    <s:alias val="$_NAND_"/>
    <s:alias val="$_ANDNOT_"/>
    <path d="M0,0 L0,25 L15,25 A15 12.5 0 0 0 15,0 Z" class="cell_$abc$145$auto$blifparse.cc:396:parse_blif$158"/>
    <circle cx="34" cy="12.5" r="3" class="cell_$abc$145$auto$blifparse.cc:396:parse_blif$158"/>
    <g s:x="0" s:y="5" s:pid="A"/>
    <g s:x="0" s:y="20" s:pid="B"/>
    <g s:x="36" s:y="12.5" s:pid="Y"/>
  </g>
  <g s:type="nand" transform="translate(394,234)" s:width="30" s:height="25" id="cell_$abc$145$auto$blifparse.cc:396:parse_blif$159">
    <s:alias val="$nand"/>
    <s:alias val="$logic_nand"/>
    <s:alias val="$_NAND_"/>
    <s:alias val="$_ANDNOT_"/>
    <path d="M0,0 L0,25 L15,25 A15 12.5 0 0 0 15,0 Z" class="cell_$abc$145$auto$blifparse.cc:396:parse_blif$159"/>
    <circle cx="34" cy="12.5" r="3" class="cell_$abc$145$auto$blifparse.cc:396:parse_blif$159"/>
    <g s:x="0" s:y="5" s:pid="A"/>
    <g s:x="0" s:y="20" s:pid="B"/>
    <g s:x="36" s:y="12.5" s:pid="Y"/>
  </g>
  <g s:type="nand" transform="translate(467,226.5)" s:width="30" s:height="25" id="cell_$abc$145$auto$blifparse.cc:396:parse_blif$160">
    <s:alias val="$nand"/>
    <s:alias val="$logic_nand"/>
    <s:alias val="$_NAND_"/>
    <s:alias val="$_ANDNOT_"/>
    <path d="M0,0 L0,25 L15,25 A15 12.5 0 0 0 15,0 Z" class="cell_$abc$145$auto$blifparse.cc:396:parse_blif$160"/>
    <circle cx="34" cy="12.5" r="3" class="cell_$abc$145$auto$blifparse.cc:396:parse_blif$160"/>
    <g s:x="0" s:y="5" s:pid="A"/>
    <g s:x="0" s:y="20" s:pid="B"/>
    <g s:x="36" s:y="12.5" s:pid="Y"/>
  </g>
  <g s:type="nand" transform="translate(687,472.5)" s:width="30" s:height="25" id="cell_$abc$145$auto$blifparse.cc:396:parse_blif$161">
    <s:alias val="$nand"/>
    <s:alias val="$logic_nand"/>
    <s:alias val="$_NAND_"/>
    <s:alias val="$_ANDNOT_"/>
    <path d="M0,0 L0,25 L15,25 A15 12.5 0 0 0 15,0 Z" class="cell_$abc$145$auto$blifparse.cc:396:parse_blif$161"/>
    <circle cx="34" cy="12.5" r="3" class="cell_$abc$145$auto$blifparse.cc:396:parse_blif$161"/>
    <g s:x="0" s:y="5" s:pid="A"/>
    <g s:x="0" s:y="20" s:pid="B"/>
    <g s:x="36" s:y="12.5" s:pid="Y"/>
  </g>
  <g s:type="or" transform="translate(758,480)" s:width="30" s:height="25" id="cell_$abc$145$auto$blifparse.cc:396:parse_blif$162">
    <s:alias val="$or"/>
    <s:alias val="$logic_or"/>
    <s:alias val="$_OR_"/>
    <path d="M0,25 L0,25 L15,25 A15 12.5 0 0 0 15,0 L0,0" class="cell_$abc$145$auto$blifparse.cc:396:parse_blif$162"/>
    <path d="M0,0 A30 25 0 0 1 0,25" class="cell_$abc$145$auto$blifparse.cc:396:parse_blif$162"/>
    <g s:x="3" s:y="5" s:pid="A"/>
    <g s:x="3" s:y="20" s:pid="B"/>
    <g s:x="30" s:y="12.5" s:pid="Y"/>
  </g>
  <g s:type="reduce_nxor" transform="translate(685,12)" s:width="33" s:height="25" id="cell_$abc$145$auto$blifparse.cc:396:parse_blif$163">
    <s:alias val="$xnor"/>
    <s:alias val="$reduce_xnor"/>
    <s:alias val="$_XNOR_"/>
    <path d="M3,0 A30 25 0 0 1 3,25 A30 25 0 0 0 33,12.5 A30 25 0 0 0 3,0" class="cell_$abc$145$auto$blifparse.cc:396:parse_blif$163"/>
    <path d="M0,0 A30 25 0 0 1 0,25" class="cell_$abc$145$auto$blifparse.cc:396:parse_blif$163"/>
    <circle cx="35" cy="12.5" r="3" class="cell_$abc$145$auto$blifparse.cc:396:parse_blif$163"/>
    <g s:x="3" s:y="5" s:pid="A"/>
    <g s:x="3" s:y="20" s:pid="B"/>
    <g s:x="38" s:y="12.5" s:pid="Y"/>
  </g>
  <g s:type="reduce_nxor" transform="translate(685,72)" s:width="33" s:height="25" id="cell_$abc$145$auto$blifparse.cc:396:parse_blif$164">
    <s:alias val="$xnor"/>
    <s:alias val="$reduce_xnor"/>
    <s:alias val="$_XNOR_"/>
    <path d="M3,0 A30 25 0 0 1 3,25 A30 25 0 0 0 33,12.5 A30 25 0 0 0 3,0" class="cell_$abc$145$auto$blifparse.cc:396:parse_blif$164"/>
    <path d="M0,0 A30 25 0 0 1 0,25" class="cell_$abc$145$auto$blifparse.cc:396:parse_blif$164"/>
    <circle cx="35" cy="12.5" r="3" class="cell_$abc$145$auto$blifparse.cc:396:parse_blif$164"/>
    <g s:x="3" s:y="5" s:pid="A"/>
    <g s:x="3" s:y="20" s:pid="B"/>
    <g s:x="38" s:y="12.5" s:pid="Y"/>
  </g>
  <g s:type="reduce_xor" transform="translate(686.6666666666666,234)" s:width="33" s:height="25" id="cell_$abc$145$auto$blifparse.cc:396:parse_blif$165">
    <s:alias val="$xor"/>
    <s:alias val="$reduce_xor"/>
    <s:alias val="$_XOR_"/>
    <path d="M3,0 A30 25 0 0 1 3,25 A30 25 0 0 0 33,12.5 A30 25 0 0 0 3,0" class="cell_$abc$145$auto$blifparse.cc:396:parse_blif$165"/>
    <path d="M0,0 A30 25 0 0 1 0,25" class="cell_$abc$145$auto$blifparse.cc:396:parse_blif$165"/>
    <g s:x="3" s:y="5" s:pid="A"/>
    <g s:x="3" s:y="20" s:pid="B"/>
    <g s:x="33" s:y="12.5" s:pid="Y"/>
  </g>
  <g s:type="reduce_nor" transform="translate(538,279)" s:width="33" s:height="25" id="cell_$abc$145$auto$blifparse.cc:396:parse_blif$166">
    <s:alias val="$nor"/>
    <s:alias val="$reduce_nor"/>
    <s:alias val="$_NOR_"/>
    <s:alias val="$_ORNOT_"/>
    <path d="M0,25 L0,25 L15,25 A15 12.5 0 0 0 15,0 L0,0" class="cell_$abc$145$auto$blifparse.cc:396:parse_blif$166"/>
    <path d="M0,0 A30 25 0 0 1 0,25" class="cell_$abc$145$auto$blifparse.cc:396:parse_blif$166"/>
    <circle cx="34" cy="12.5" r="3" class="cell_$abc$145$auto$blifparse.cc:396:parse_blif$166"/>
    <g s:x="3" s:y="5" s:pid="A"/>
    <g s:x="3" s:y="20" s:pid="B"/>
    <g s:x="36" s:y="12.5" s:pid="Y"/>
  </g>
  <g s:type="reduce_nor" transform="translate(614,286.5)" s:width="33" s:height="25" id="cell_$abc$145$auto$blifparse.cc:396:parse_blif$167">
    <s:alias val="$nor"/>
    <s:alias val="$reduce_nor"/>
    <s:alias val="$_NOR_"/>
    <s:alias val="$_ORNOT_"/>
    <path d="M0,25 L0,25 L15,25 A15 12.5 0 0 0 15,0 L0,0" class="cell_$abc$145$auto$blifparse.cc:396:parse_blif$167"/>
    <path d="M0,0 A30 25 0 0 1 0,25" class="cell_$abc$145$auto$blifparse.cc:396:parse_blif$167"/>
    <circle cx="34" cy="12.5" r="3" class="cell_$abc$145$auto$blifparse.cc:396:parse_blif$167"/>
    <g s:x="3" s:y="5" s:pid="A"/>
    <g s:x="3" s:y="20" s:pid="B"/>
    <g s:x="36" s:y="12.5" s:pid="Y"/>
  </g>
  <g s:type="reduce_xor" transform="translate(686.6666666666666,294)" s:width="33" s:height="25" id="cell_$abc$145$auto$blifparse.cc:396:parse_blif$168">
    <s:alias val="$xor"/>
    <s:alias val="$reduce_xor"/>
    <s:alias val="$_XOR_"/>
    <path d="M3,0 A30 25 0 0 1 3,25 A30 25 0 0 0 33,12.5 A30 25 0 0 0 3,0" class="cell_$abc$145$auto$blifparse.cc:396:parse_blif$168"/>
    <path d="M0,0 A30 25 0 0 1 0,25" class="cell_$abc$145$auto$blifparse.cc:396:parse_blif$168"/>
    <g s:x="3" s:y="5" s:pid="A"/>
    <g s:x="3" s:y="20" s:pid="B"/>
    <g s:x="33" s:y="12.5" s:pid="Y"/>
  </g>
  <g s:type="inputExt" transform="translate(12,88)" s:width="30" s:height="20" id="cell_a">
    <text x="15" y="-4" class="nodelabel cell_a" s:attribute="ref">a</text>
    <s:alias val="$_inputExt_"/>
    <path d="M0,0 L0,20 L15,20 L30,10 L15,0 Z" class="cell_a"/>
    <g s:x="28" s:y="10" s:pid="Y"/>
  </g>
  <g s:type="inputExt" transform="translate(12,203)" s:width="30" s:height="20" id="cell_b">
    <text x="15" y="-4" class="nodelabel cell_b" s:attribute="ref">b</text>
    <s:alias val="$_inputExt_"/>
    <path d="M0,0 L0,20 L15,20 L30,10 L15,0 Z" class="cell_b"/>
    <g s:x="28" s:y="10" s:pid="Y"/>
  </g>
  <g s:type="inputExt" transform="translate(182,326.5)" s:width="30" s:height="20" id="cell_cin">
    <text x="15" y="-4" class="nodelabel cell_cin" s:attribute="ref">cin</text>
    <s:alias val="$_inputExt_"/>
    <path d="M0,0 L0,20 L15,20 L30,10 L15,0 Z" class="cell_cin"/>
    <g s:x="28" s:y="10" s:pid="Y"/>
  </g>
  <g s:type="outputExt" transform="translate(823,64.5)" s:width="30" s:height="20" id="cell_sum">
    <text x="15" y="-4" class="nodelabel cell_sum" s:attribute="ref">sum</text>
    <s:alias val="$_outputExt_"/>
    <path d="M30,0 L30,20 L15,20 L0,10 L15,0 Z" class="cell_sum"/>
    <g s:x="0" s:y="10" s:pid="A"/>
  </g>
  <g s:type="outputExt" transform="translate(823,482.5)" s:width="30" s:height="20" id="cell_cout">
    <text x="15" y="-4" class="nodelabel cell_cout" s:attribute="ref">cout</text>
    <s:alias val="$_outputExt_"/>
    <path d="M30,0 L30,20 L15,20 L0,10 L15,0 Z" class="cell_cout"/>
    <g s:x="0" s:y="10" s:pid="A"/>
  </g>
  <g s:type="join" transform="translate(768,54)" s:width="4" s:height="40" id="cell_$join$,11,12,13,14,">
    <rect width="5" height="80" class="splitjoinBody" s:generic="body"/>
    <s:alias val="$_join_"/>
    <g s:x="5" s:y="20" s:pid="out"/>
    <g transform="translate(0,10)" s:x="0" s:y="10" s:pid="in0">
      <text x="-3" y="-4" class="inputPortLabel">0</text>
    </g>
    <g transform="translate(0,30)" s:x="0" s:y="10" s:pid="in0">
      <text x="-3" y="-4" class="inputPortLabel">1</text>
    </g>
    <g transform="translate(0,50)" s:x="0" s:y="10" s:pid="in0">
      <text x="-3" y="-4" class="inputPortLabel">2</text>
    </g>
    <g transform="translate(0,70)" s:x="0" s:y="10" s:pid="in0">
      <text x="-3" y="-4" class="inputPortLabel">3</text>
    </g>
  </g>
  <g s:type="split" transform="translate(77,77.5)" s:width="5" s:height="40" id="cell_$split$,2,3,4,5,">
    <rect width="5" height="80" class="splitjoinBody" s:generic="body"/>
    <s:alias val="$_split_"/>
    <g s:x="0" s:y="20" s:pid="in"/>
    <g transform="translate(4,10)" s:x="4" s:y="10" s:pid="out0">
      <text x="5" y="-4">3</text>
    </g>
    <g transform="translate(4,30)" s:x="4" s:y="10" s:pid="out0">
      <text x="5" y="-4">2</text>
    </g>
    <g transform="translate(4,50)" s:x="4" s:y="10" s:pid="out0">
      <text x="5" y="-4">1</text>
    </g>
    <g transform="translate(4,70)" s:x="4" s:y="10" s:pid="out0">
      <text x="5" y="-4">0</text>
    </g>
  </g>
  <g s:type="split" transform="translate(77,192.5)" s:width="5" s:height="40" id="cell_$split$,6,7,8,9,">
    <rect width="5" height="80" class="splitjoinBody" s:generic="body"/>
    <s:alias val="$_split_"/>
    <g s:x="0" s:y="20" s:pid="in"/>
    <g transform="translate(4,10)" s:x="4" s:y="10" s:pid="out0">
      <text x="5" y="-4">3</text>
    </g>
    <g transform="translate(4,30)" s:x="4" s:y="10" s:pid="out0">
      <text x="5" y="-4">2</text>
    </g>
    <g transform="translate(4,50)" s:x="4" s:y="10" s:pid="out0">
      <text x="5" y="-4">1</text>
    </g>
    <g transform="translate(4,70)" s:x="4" s:y="10" s:pid="out0">
      <text x="5" y="-4">0</text>
    </g>
  </g>
  <line x1="82" x2="129" y1="88" y2="88" class="net_5"/>
  <line x1="129" x2="129" y1="88" y2="583.5" class="net_5"/>
  <line x1="129" x2="616" y1="583.5" y2="583.5" class="net_5"/>
  <line x1="82" x2="129" y1="88" y2="88" class="net_5"/>
  <line x1="129" x2="129" y1="88" y2="446.5" class="net_5"/>
  <circle cx="129" cy="446.5" r="2" style="fill:#000" class="net_5"/>
  <line x1="129" x2="542" y1="446.5" y2="446.5" class="net_5"/>
  <line x1="82" x2="99" y1="203" y2="203" class="net_9"/>
  <line x1="99" x2="99" y1="203" y2="594.5" class="net_9"/>
  <line x1="99" x2="584" y1="594.5" y2="594.5" class="net_9"/>
  <line x1="584" x2="584" y1="594.5" y2="598.5" class="net_9"/>
  <line x1="584" x2="616" y1="598.5" y2="598.5" class="net_9"/>
  <line x1="82" x2="99" y1="203" y2="203" class="net_9"/>
  <line x1="99" x2="99" y1="203" y2="457.5" class="net_9"/>
  <line x1="99" x2="523" y1="457.5" y2="457.5" class="net_9"/>
  <line x1="523" x2="523" y1="457.5" y2="461.5" class="net_9"/>
  <circle cx="99" cy="457.5" r="2" style="fill:#000" class="net_9"/>
  <line x1="523" x2="542" y1="461.5" y2="461.5" class="net_9"/>
  <line x1="82" x2="119" y1="108" y2="108" class="net_4"/>
  <line x1="119" x2="119" y1="108" y2="537.5" class="net_4"/>
  <circle cx="119" cy="108" r="2" style="fill:#000" class="net_4"/>
  <line x1="119" x2="538" y1="537.5" y2="537.5" class="net_4"/>
  <line x1="82" x2="468" y1="108" y2="108" class="net_4"/>
  <line x1="82" x2="109" y1="223" y2="223" class="net_8"/>
  <line x1="109" x2="109" y1="223" y2="548.5" class="net_8"/>
  <line x1="109" x2="523" y1="548.5" y2="548.5" class="net_8"/>
  <line x1="523" x2="523" y1="548.5" y2="552.5" class="net_8"/>
  <circle cx="109" cy="223" r="2" style="fill:#000" class="net_8"/>
  <line x1="523" x2="538" y1="552.5" y2="552.5" class="net_8"/>
  <line x1="82" x2="440" y1="223" y2="223" class="net_8"/>
  <line x1="440" x2="440" y1="223" y2="123" class="net_8"/>
  <line x1="440" x2="468" y1="123" y2="123" class="net_8"/>
  <line x1="572" x2="594" y1="454" y2="454" class="net_17"/>
  <line x1="594" x2="594" y1="454" y2="530" class="net_17"/>
  <circle cx="594" cy="454" r="2" style="fill:#000" class="net_17"/>
  <line x1="594" x2="614" y1="530" y2="530" class="net_17"/>
  <line x1="572" x2="594" y1="454" y2="454" class="net_17"/>
  <line x1="594" x2="594" y1="454" y2="470" class="net_17"/>
  <circle cx="594" cy="470" r="2" style="fill:#000" class="net_17"/>
  <line x1="594" x2="614" y1="470" y2="470" class="net_17"/>
  <line x1="572" x2="660" y1="454" y2="454" class="net_17"/>
  <line x1="660" x2="660" y1="454" y2="314" class="net_17"/>
  <line x1="660" x2="689.6666666666666" y1="314" y2="314" class="net_17"/>
  <line x1="574" x2="614" y1="545" y2="545" class="net_18"/>
  <line x1="574" x2="584" y1="545" y2="545" class="net_18"/>
  <line x1="584" x2="584" y1="545" y2="306.5" class="net_18"/>
  <circle cx="584" cy="545" r="2" style="fill:#000" class="net_18"/>
  <line x1="584" x2="617" y1="306.5" y2="306.5" class="net_18"/>
  <line x1="650" x2="690.6666666666666" y1="537.5" y2="537.5" class="net_19"/>
  <line x1="646" x2="670" y1="591" y2="591" class="net_16"/>
  <line x1="670" x2="670" y1="591" y2="552.5" class="net_16"/>
  <line x1="670" x2="690.6666666666666" y1="552.5" y2="552.5" class="net_16"/>
  <line x1="503" x2="523" y1="115.5" y2="115.5" class="net_21"/>
  <line x1="523" x2="523" y1="115.5" y2="314" class="net_21"/>
  <line x1="523" x2="604" y1="314" y2="314" class="net_21"/>
  <line x1="604" x2="604" y1="314" y2="485" class="net_21"/>
  <line x1="604" x2="614" y1="485" y2="485" class="net_21"/>
  <line x1="503" x2="523" y1="115.5" y2="115.5" class="net_21"/>
  <line x1="523" x2="523" y1="115.5" y2="250" class="net_21"/>
  <line x1="523" x2="660" y1="250" y2="250" class="net_21"/>
  <line x1="660" x2="660" y1="250" y2="254" class="net_21"/>
  <circle cx="523" cy="250" r="2" style="fill:#000" class="net_21"/>
  <line x1="660" x2="689.6666666666666" y1="254" y2="254" class="net_21"/>
  <line x1="503" x2="523" y1="115.5" y2="115.5" class="net_21"/>
  <line x1="523" x2="523" y1="115.5" y2="299" class="net_21"/>
  <circle cx="523" cy="299" r="2" style="fill:#000" class="net_21"/>
  <line x1="523" x2="541" y1="299" y2="299" class="net_21"/>
  <line x1="82" x2="149" y1="128" y2="128" class="net_3"/>
  <line x1="149" x2="149" y1="128" y2="416.5" class="net_3"/>
  <line x1="149" x2="394" y1="416.5" y2="416.5" class="net_3"/>
  <line x1="82" x2="149" y1="128" y2="128" class="net_3"/>
  <line x1="149" x2="149" y1="128" y2="386.5" class="net_3"/>
  <circle cx="149" cy="386.5" r="2" style="fill:#000" class="net_3"/>
  <line x1="149" x2="327" y1="386.5" y2="386.5" class="net_3"/>
  <line x1="82" x2="139" y1="243" y2="243" class="net_7"/>
  <line x1="139" x2="139" y1="243" y2="427.5" class="net_7"/>
  <line x1="139" x2="369" y1="427.5" y2="427.5" class="net_7"/>
  <line x1="369" x2="369" y1="427.5" y2="431.5" class="net_7"/>
  <line x1="369" x2="394" y1="431.5" y2="431.5" class="net_7"/>
  <line x1="82" x2="139" y1="243" y2="243" class="net_7"/>
  <line x1="139" x2="139" y1="243" y2="397.5" class="net_7"/>
  <line x1="139" x2="298" y1="397.5" y2="397.5" class="net_7"/>
  <line x1="298" x2="298" y1="397.5" y2="401.5" class="net_7"/>
  <circle cx="139" cy="397.5" r="2" style="fill:#000" class="net_7"/>
  <line x1="298" x2="327" y1="401.5" y2="401.5" class="net_7"/>
  <line x1="82" x2="169" y1="148" y2="148" class="net_2"/>
  <line x1="169" x2="169" y1="148" y2="356.5" class="net_2"/>
  <line x1="169" x2="252" y1="356.5" y2="356.5" class="net_2"/>
  <line x1="82" x2="169" y1="148" y2="148" class="net_2"/>
  <line x1="169" x2="169" y1="148" y2="261.5" class="net_2"/>
  <circle cx="169" cy="261.5" r="2" style="fill:#000" class="net_2"/>
  <line x1="169" x2="182" y1="261.5" y2="261.5" class="net_2"/>
  <line x1="82" x2="159" y1="263" y2="263" class="net_6"/>
  <line x1="159" x2="159" y1="263" y2="367.5" class="net_6"/>
  <line x1="159" x2="227" y1="367.5" y2="367.5" class="net_6"/>
  <line x1="227" x2="227" y1="367.5" y2="371.5" class="net_6"/>
  <line x1="227" x2="252" y1="371.5" y2="371.5" class="net_6"/>
  <line x1="82" x2="159" y1="263" y2="263" class="net_6"/>
  <line x1="159" x2="159" y1="263" y2="276.5" class="net_6"/>
  <circle cx="159" cy="276.5" r="2" style="fill:#000" class="net_6"/>
  <line x1="159" x2="182" y1="276.5" y2="276.5" class="net_6"/>
  <line x1="210" x2="237" y1="336.5" y2="336.5" class="net_10"/>
  <line x1="237" x2="237" y1="336.5" y2="254" class="net_10"/>
  <circle cx="237" cy="254" r="2" style="fill:#000" class="net_10"/>
  <line x1="237" x2="252" y1="254" y2="254" class="net_10"/>
  <line x1="210" x2="237" y1="336.5" y2="336.5" class="net_10"/>
  <line x1="237" x2="237" y1="336.5" y2="32" class="net_10"/>
  <line x1="237" x2="688" y1="32" y2="32" class="net_10"/>
  <line x1="217" x2="252" y1="269" y2="269" class="net_26"/>
  <line x1="217" x2="227" y1="269" y2="269" class="net_26"/>
  <line x1="227" x2="227" y1="269" y2="17" class="net_26"/>
  <circle cx="227" cy="269" r="2" style="fill:#000" class="net_26"/>
  <line x1="227" x2="688" y1="17" y2="17" class="net_26"/>
  <line x1="288" x2="298" y1="364" y2="364" class="net_25"/>
  <line x1="298" x2="298" y1="364" y2="246.5" class="net_25"/>
  <line x1="298" x2="323" y1="246.5" y2="246.5" class="net_25"/>
  <line x1="288" x2="323" y1="261.5" y2="261.5" class="net_27"/>
  <line x1="357" x2="379" y1="394" y2="394" class="net_24"/>
  <line x1="379" x2="379" y1="394" y2="239" class="net_24"/>
  <circle cx="379" cy="239" r="2" style="fill:#000" class="net_24"/>
  <line x1="379" x2="394" y1="239" y2="239" class="net_24"/>
  <line x1="357" x2="379" y1="394" y2="394" class="net_24"/>
  <line x1="379" x2="379" y1="394" y2="92" class="net_24"/>
  <line x1="379" x2="688" y1="92" y2="92" class="net_24"/>
  <line x1="359" x2="394" y1="254" y2="254" class="net_28"/>
  <line x1="359" x2="369" y1="254" y2="254" class="net_28"/>
  <line x1="369" x2="369" y1="254" y2="77" class="net_28"/>
  <circle cx="369" cy="254" r="2" style="fill:#000" class="net_28"/>
  <line x1="369" x2="688" y1="77" y2="77" class="net_28"/>
  <line x1="430" x2="440" y1="424" y2="424" class="net_23"/>
  <line x1="440" x2="440" y1="424" y2="231.5" class="net_23"/>
  <line x1="440" x2="467" y1="231.5" y2="231.5" class="net_23"/>
  <line x1="430" x2="467" y1="246.5" y2="246.5" class="net_29"/>
  <line x1="650" x2="687" y1="477.5" y2="477.5" class="net_22"/>
  <line x1="503" x2="513" y1="239" y2="239" class="net_30"/>
  <line x1="513" x2="513" y1="239" y2="567.5" class="net_30"/>
  <line x1="513" x2="660" y1="567.5" y2="567.5" class="net_30"/>
  <line x1="660" x2="660" y1="567.5" y2="492.5" class="net_30"/>
  <circle cx="513" cy="239" r="2" style="fill:#000" class="net_30"/>
  <line x1="660" x2="687" y1="492.5" y2="492.5" class="net_30"/>
  <line x1="503" x2="689.6666666666666" y1="239" y2="239" class="net_30"/>
  <line x1="503" x2="513" y1="239" y2="239" class="net_30"/>
  <line x1="513" x2="513" y1="239" y2="284" class="net_30"/>
  <circle cx="513" cy="284" r="2" style="fill:#000" class="net_30"/>
  <line x1="513" x2="541" y1="284" y2="284" class="net_30"/>
  <line x1="723" x2="761" y1="485" y2="485" class="net_31"/>
  <line x1="717.6666666666666" x2="733" y1="545" y2="545" class="net_20"/>
  <line x1="733" x2="733" y1="545" y2="500" class="net_20"/>
  <line x1="733" x2="761" y1="500" y2="500" class="net_20"/>
  <line x1="574" x2="617" y1="291.5" y2="291.5" class="net_32"/>
  <line x1="650" x2="689.6666666666666" y1="299" y2="299" class="net_33"/>
  <line x1="774" x2="823" y1="74.5" y2="74.5" class="net_11,12,13,14"/>
  <line x1="788" x2="823" y1="492.5" y2="492.5" class="net_15"/>
  <line x1="723" x2="733" y1="24.5" y2="24.5" class="net_11"/>
  <line x1="733" x2="733" y1="24.5" y2="64.5" class="net_11"/>
  <line x1="733" x2="768" y1="64.5" y2="64.5" class="net_11"/>
  <line x1="723" x2="768" y1="84.5" y2="84.5" class="net_12"/>
  <line x1="719.6666666666666" x2="733" y1="246.5" y2="246.5" class="net_13"/>
  <line x1="733" x2="733" y1="246.5" y2="104.5" class="net_13"/>
  <line x1="733" x2="768" y1="104.5" y2="104.5" class="net_13"/>
  <line x1="719.6666666666666" x2="768.5" y1="306.5" y2="306.5" class="net_14"/>
  <line x1="768.5" x2="768.5" y1="306.5" y2="125" class="net_14"/>
  <line x1="40" x2="77" y1="98" y2="98" class="net_2,3,4,5"/>
  <line x1="40" x2="77" y1="213" y2="213" class="net_6,7,8,9"/>
</svg>
